# xmcd
#
# Track frame offsets:
#	150
#	13064
#	26023
#	40595
#	52618
#	66432
#	77552
#	89750
#	102798
#	116831
#	130879
#	145334
#	160093
#	173443
#	186389
#	196472
#	207439
#	218727
#	238892
#	252166
#	267324
#	285255
#	295228
#	310481
#
# Disc length: 4326 seconds
#
# Revision: 2
# Processed by: cddbd v1.5.1PL0 Copyright (c) Steve Scherf et al.
# Submitted via: EasyCDDAExtractor 7.5.0.1
#
DISCID=6010e418
DTITLE=Various Artist - Kentucky Mountain Music (Classic Recordings Of The 19
DTITLE=20s and 30s) - Disc 6
DYEAR=2003
DGENRE=Bluegrass
TTITLE0=Mangrum and Shriver - Bill Cheatam
TTITLE1=Buell Kazee - Short Life Of Trouble
TTITLE2=Madisonville String Band - B Flat Rag
TTITLE3=Green Bailey - The Fate Of Ellen Smith
TTITLE4=Jimmy Johnson's String Band - Washington Quadrille
TTITLE5=Rutherford and Foster - Storms May Rule the Ocean
TTITLE6=Taylor's Kentucky Boys - Gray Eagle
TTITLE7=Crockett Family Mountaineers - Bile Dem Cabbage Down
TTITLE8=Doc Roberts - Martha Campbell
TTITLE9=Burnett and Rutherford - I'll Be With You When The Roses Bloom Again
TTITLE10=Charlie Wilson and His Hillbillies - Shelvin Rock
TTITLE11=Buell Kazee - The Roving Cowboy
TTITLE12=Ted Gossett's Band - Fox Chase
TTITLE13=Lonesome Luke and His Farm Boys - Dogs In The Ashcan
TTITLE14=Green Maggard - Come All Ye Fair And Handsome Girls
TTITLE15=Pete Steele - Rambling Hobo
TTITLE16=Clifford Gross - Leather Breeches
TTITLE17=Bill Bundy - Poison In A Glass Of Wine
TTITLE18=Tom West - The Valentine
TTITLE19=Walter Family - Flying Cloud Waltz
TTITLE20=Ed Morrison - A Western Union Telegram
TTITLE21=James Howard - My Little Carpenter
TTITLE22=Hatton Brothers - Hook And Line
TTITLE23=Oaks Family - Will It Pay
EXTD=
EXTT0=
EXTT1=
EXTT2=
EXTT3=
EXTT4=
EXTT5=
EXTT6=
EXTT7=
EXTT8=
EXTT9=
EXTT10=
EXTT11=
EXTT12=
EXTT13=
EXTT14=
EXTT15=
EXTT16=
EXTT17=
EXTT18=
EXTT19=
EXTT20=
EXTT21=
EXTT22=
EXTT23=
PLAYORDER=
